<?xml version="1.0" encoding="UTF-8" standalone="no"?>
<!DOCTYPE svg PUBLIC "-//W3C//DTD SVG 20010904//EN"
              "http://www.w3.org/TR/2001/REC-SVG-20010904/DTD/svg10.dtd">

<svg xmlns="http://www.w3.org/2000/svg"
     width="0.316667in" height="0.273333in"
     viewBox="0 0 95 82">
  <path id="Selection"
        fill="none" stroke="black" stroke-width="1"
        d="M 82.00,0.00
           C 87.38,11.79 75.78,23.43 68.00,30.96
             63.69,35.13 61.10,38.14 55.00,39.00
             55.00,39.00 52.00,46.00 52.00,46.00
             52.00,46.00 48.00,46.00 48.00,46.00
             48.00,46.00 45.00,49.00 45.00,49.00
             45.00,49.00 45.00,53.00 45.00,53.00
             45.00,53.00 41.00,53.00 41.00,53.00
             40.61,55.40 40.44,57.52 37.89,58.66
             35.66,59.66 32.48,58.04 30.84,60.55
             29.00,63.38 32.57,66.06 32.09,68.85
             31.72,71.00 29.81,71.43 27.98,70.84
             25.05,69.89 23.74,66.83 20.00,68.61
             11.69,72.59 8.20,86.68 1.54,77.94
             0.71,76.84 0.54,76.13 0.00,75.00
             0.00,75.00 17.00,60.00 17.00,60.00
             14.39,54.98 19.79,54.78 23.00,52.54
             25.11,51.06 29.01,46.99 31.00,45.00
             31.00,45.00 65.00,11.34 65.00,11.34
             71.13,6.38 72.86,8.31 82.00,0.00 Z
           M 11.00,1.00
           C 15.56,2.30 16.21,3.52 20.00,5.87
             30.65,12.49 27.02,8.65 37.00,18.42
             38.93,20.31 43.82,24.31 43.80,27.01
             43.79,30.59 36.75,36.03 34.00,38.00
             26.76,30.76 13.83,19.97 11.53,10.00
             10.87,7.17 11.00,3.91 11.00,1.00 Z
           M 50.00,53.00
           C 50.67,50.71 50.78,50.00 52.31,48.00
             60.54,37.31 64.02,46.05 71.00,51.78
             72.85,53.31 76.19,54.90 77.33,56.34
             79.51,59.10 77.27,60.00 83.02,66.00
             85.77,68.86 94.36,74.06 92.83,77.96
             92.03,80.00 89.57,81.77 87.37,80.83
             85.78,80.15 78.69,70.66 75.00,68.46
             69.64,65.26 64.88,74.78 62.40,69.55
             61.08,66.78 64.81,63.92 64.33,61.70
             63.60,58.31 58.32,59.76 56.14,58.79
             53.70,57.70 53.44,55.19 50.00,53.00 Z" />
</svg>
