<?xml version="1.0" encoding="UTF-8" standalone="no"?>
<!DOCTYPE svg PUBLIC "-//W3C//DTD SVG 20010904//EN"
              "http://www.w3.org/TR/2001/REC-SVG-20010904/DTD/svg10.dtd">

<svg xmlns="http://www.w3.org/2000/svg"
     width="0.263333in" height="0.266667in"
     viewBox="0 0 79 80">
  <path id="Selection"
        fill="none" stroke="black" stroke-width="1"
        d="M 10.00,3.00
           C 12.73,5.35 14.16,7.24 18.00,5.95
             18.00,5.95 23.00,3.51 23.00,3.51
             27.22,1.65 33.39,0.22 38.00,0.04
             43.61,-0.18 49.77,1.05 55.00,3.07
             57.47,4.02 61.60,6.64 64.00,6.30
             65.79,6.04 68.44,4.02 70.00,3.00
             72.02,5.10 75.31,7.70 74.70,10.96
             74.37,12.71 72.50,14.10 72.64,16.28
             72.78,18.43 75.87,21.99 77.51,28.00
             79.77,36.26 79.56,44.86 76.97,53.00
             76.97,53.00 72.77,62.72 72.77,62.72
             71.72,66.72 77.12,68.50 73.63,72.85
             69.24,78.30 66.47,72.08 61.00,73.82
             61.00,73.82 55.00,76.66 55.00,76.66
             50.57,78.57 42.82,80.19 38.00,79.91
             27.29,79.28 19.51,74.02 17.00,73.49
             12.04,72.03 10.30,77.06 6.17,73.49
             1.15,69.47 7.22,66.97 6.17,62.83
             6.17,62.83 2.09,54.00 2.09,54.00
             -0.09,47.96 -0.82,37.26 0.52,31.00
             1.94,24.32 5.88,18.60 6.23,17.28
             7.02,14.32 4.74,13.31 4.31,10.99
             3.61,7.32 7.46,4.84 10.00,3.00 Z
           M 57.00,15.00
           C 47.34,9.03 30.42,6.63 22.00,16.00
             30.60,24.61 31.23,24.58 24.00,32.00
             20.94,27.73 18.81,25.28 14.00,23.00
             7.10,35.19 7.23,44.76 14.00,57.00
             14.00,57.00 25.00,48.00 25.00,48.00
             25.00,48.00 31.00,55.00 31.00,55.00
             31.00,55.00 22.00,63.00 22.00,63.00
             22.00,63.00 22.00,65.00 22.00,65.00
             34.36,72.01 44.64,72.01 57.00,65.00
             55.07,62.30 49.37,57.13 50.20,54.00
             50.69,52.11 53.62,49.41 55.00,48.00
             58.06,52.27 60.19,54.72 65.00,57.00
             71.67,44.95 71.67,35.05 65.00,23.00
             65.00,23.00 54.00,32.00 54.00,32.00
             54.00,32.00 50.04,25.00 50.04,25.00
             50.04,25.00 57.00,15.00 57.00,15.00 Z" />
</svg>
