<?xml version="1.0" encoding="UTF-8" standalone="no"?>
<!DOCTYPE svg PUBLIC "-//W3C//DTD SVG 20010904//EN"
              "http://www.w3.org/TR/2001/REC-SVG-20010904/DTD/svg10.dtd">

<svg xmlns="http://www.w3.org/2000/svg"
     width="0.2in" height="0.276667in"
     viewBox="0 0 60 83">
  <path id="Selection"
        fill="none" stroke="black" stroke-width="1"
        d="M 0.05,1.00
           C 2.95,0.16 3.94,0.05 7.00,0.00
             7.00,0.00 53.00,0.00 53.00,0.00
             60.49,0.14 59.99,2.26 60.00,9.00
             60.00,9.00 59.48,48.00 59.48,48.00
             58.21,53.95 55.11,59.17 51.52,64.00
             47.69,69.15 37.51,80.55 31.00,81.48
             26.46,82.12 20.22,76.61 17.04,73.71
             3.69,61.58 -0.15,51.48 0.05,34.00
             0.05,34.00 0.05,1.00 0.05,1.00 Z
           M 55.00,6.00
           C 55.00,6.00 37.00,5.00 37.00,5.00
             37.00,5.00 6.00,5.00 6.00,5.00
             6.00,5.00 6.00,33.00 6.00,33.00
             6.00,36.98 5.73,45.54 6.53,49.00
             7.43,52.90 9.75,56.75 12.04,60.00
             14.96,64.14 24.80,75.45 30.00,75.45
             33.62,75.45 37.58,71.35 40.00,68.99
             49.03,60.15 53.98,53.88 54.00,41.00
             54.01,32.36 53.20,13.41 55.00,6.00 Z
           M 9.93,9.00
           C 9.93,9.00 51.00,9.00 51.00,9.00
             51.00,9.00 50.21,47.00 50.21,47.00
             48.71,52.28 45.52,56.82 42.08,61.00
             39.69,63.89 34.04,70.97 30.00,70.85
             26.36,70.73 20.19,63.74 17.93,61.00
             14.93,57.34 11.01,51.60 9.93,47.00
             8.96,43.79 9.99,37.01 9.93,33.00
             9.93,33.00 9.93,9.00 9.93,9.00 Z" />
</svg>
