<?xml version="1.0" encoding="UTF-8" standalone="no"?>
<!DOCTYPE svg PUBLIC "-//W3C//DTD SVG 20010904//EN"
              "http://www.w3.org/TR/2001/REC-SVG-20010904/DTD/svg10.dtd">

<svg xmlns="http://www.w3.org/2000/svg"
     width="10.0833in" height="7.58333in"
     viewBox="0 0 726 546">
  <path id="Selection"
        fill="none" stroke="black" stroke-width="1"
        d="M 120.00,0.00
           C 120.00,0.00 605.00,0.00 605.00,0.00
             605.00,0.00 571.69,53.00 571.69,53.00
             571.69,53.00 515.69,141.00 515.69,141.00
             515.69,141.00 487.69,185.00 487.69,185.00
             487.69,185.00 473.00,206.00 473.00,206.00
             474.46,188.65 486.87,173.37 488.49,148.00
             489.86,126.47 476.22,101.19 461.58,86.28
             424.42,48.48 362.91,37.92 314.00,56.81
             280.98,69.56 251.83,93.43 242.89,129.00
             240.59,138.16 240.90,142.73 241.00,152.00
             241.25,173.33 256.53,192.62 257.00,214.00
             252.02,209.65 243.14,194.36 239.19,188.00
             239.19,188.00 209.95,142.00 209.95,142.00
             209.95,142.00 153.31,53.00 153.31,53.00
             153.31,53.00 120.00,0.00 120.00,0.00 Z
           M 53.00,30.00
           C 53.00,30.00 128.00,30.00 128.00,30.00
             137.90,30.02 136.78,31.29 144.31,43.00
             144.31,43.00 163.34,73.00 163.34,73.00
             163.34,73.00 211.05,148.00 211.05,148.00
             211.05,148.00 251.19,211.00 251.19,211.00
             255.26,217.56 259.43,222.85 256.40,231.00
             254.40,236.39 244.20,242.26 245.10,255.00
             245.73,264.06 250.35,263.23 254.12,272.00
             254.12,272.00 259.21,292.00 259.21,292.00
             260.43,294.76 262.04,296.80 264.09,298.99
             278.84,314.68 289.87,305.64 307.00,303.00
             307.00,303.00 300.88,325.00 300.88,325.00
             300.88,325.00 298.02,334.40 298.02,334.40
             298.02,334.40 291.00,336.00 291.00,336.00
             291.00,336.00 262.00,336.00 262.00,336.00
             262.00,336.00 255.32,335.43 255.32,335.43
             255.32,335.43 243.00,319.00 243.00,319.00
             243.00,319.00 206.67,264.00 206.67,264.00
             206.67,264.00 108.33,115.00 108.33,115.00
             108.33,115.00 74.00,63.00 74.00,63.00
             74.00,63.00 53.00,30.00 53.00,30.00 Z
           M 422.00,301.95
           C 435.52,305.64 449.54,313.76 461.96,301.95
             464.24,299.72 465.70,297.75 467.20,295.00
             467.20,295.00 475.32,273.00 475.32,273.00
             478.55,266.11 484.44,260.06 484.72,252.00
             484.99,244.55 478.36,240.25 474.57,235.00
             471.04,230.13 469.98,221.74 471.64,216.00
             472.90,211.61 477.64,205.10 480.19,201.00
             480.19,201.00 499.95,170.00 499.95,170.00
             499.95,170.00 562.31,72.00 562.31,72.00
             562.31,72.00 580.69,43.00 580.69,43.00
             588.22,31.29 587.10,30.02 597.00,30.00
             597.00,30.00 672.00,30.00 672.00,30.00
             669.51,36.51 658.16,52.27 653.67,59.00
             653.67,59.00 620.00,110.00 620.00,110.00
             620.00,110.00 515.67,268.00 515.67,268.00
             515.67,268.00 483.33,317.00 483.33,317.00
             480.90,320.65 472.94,334.00 469.68,335.17
             466.77,336.69 461.20,335.31 458.00,335.17
             458.00,335.17 437.00,335.17 437.00,335.17
             434.96,334.96 432.45,335.10 430.98,333.40
             429.92,332.17 428.56,325.96 428.00,324.00
             428.00,324.00 422.00,301.95 422.00,301.95 Z
           M 0.00,63.00
           C 0.00,63.00 63.00,63.00 63.00,63.00
             73.89,63.02 73.55,66.33 80.67,77.00
             80.67,77.00 96.34,101.00 96.34,101.00
             96.34,101.00 106.00,116.00 106.00,116.00
             106.00,116.00 47.00,116.00 47.00,116.00
             36.10,115.98 36.53,112.60 29.79,104.00
             29.79,104.00 12.21,81.00 12.21,81.00
             8.15,75.82 2.34,69.02 0.00,63.00 Z
           M 619.00,116.00
           C 619.00,116.00 631.33,97.00 631.33,97.00
             631.33,97.00 644.33,77.00 644.33,77.00
             651.45,66.33 651.11,63.02 662.00,63.00
             662.00,63.00 726.00,63.00 726.00,63.00
             726.00,63.00 696.00,103.00 696.00,103.00
             688.91,112.02 689.09,115.98 678.00,116.00
             678.00,116.00 619.00,116.00 619.00,116.00 Z
           M 360.02,110.74
           C 364.06,109.75 369.23,109.32 372.81,111.89
             381.94,118.42 377.44,135.30 364.00,133.80
             351.97,132.46 349.02,116.80 360.02,110.74 Z
           M 364.14,117.66
           C 358.59,121.37 362.35,126.97 365.99,126.18
             370.21,125.25 372.03,117.09 364.14,117.66 Z
           M 29.00,121.00
           C 29.00,121.00 102.00,121.00 102.00,121.00
             110.86,121.02 109.66,120.99 117.67,133.00
             117.67,133.00 134.00,158.00 134.00,158.00
             137.54,163.32 142.06,168.92 144.00,175.00
             144.00,175.00 77.00,175.00 77.00,175.00
             65.65,174.98 64.41,169.71 57.87,161.00
             57.87,161.00 38.87,136.00 38.87,136.00
             35.16,131.09 30.96,126.91 29.00,121.00 Z
           M 581.00,175.00
           C 582.93,168.92 587.46,163.31 591.00,158.00
             591.00,158.00 607.33,133.00 607.33,133.00
             615.34,120.99 614.14,121.02 623.00,121.00
             623.00,121.00 696.00,121.00 696.00,121.00
             694.04,126.91 689.84,131.09 686.13,136.00
             686.13,136.00 667.13,161.00 667.13,161.00
             660.48,169.87 659.59,174.98 648.00,175.00
             648.00,175.00 581.00,175.00 581.00,175.00 Z
           M 364.00,153.62
           C 379.65,153.04 376.85,173.71 364.00,171.76
             355.25,170.43 352.12,157.09 364.00,153.62 Z
           M 58.00,180.00
           C 58.00,180.00 141.00,180.00 141.00,180.00
             150.01,180.02 148.67,180.00 157.33,193.00
             157.33,193.00 183.00,233.00 183.00,233.00
             183.00,233.00 105.00,233.00 105.00,233.00
             94.20,232.98 94.32,228.66 87.58,220.00
             87.58,220.00 58.00,180.00 58.00,180.00 Z
           M 542.00,233.00
           C 542.00,233.00 567.67,193.00 567.67,193.00
             576.23,180.09 575.00,180.02 584.00,180.00
             584.00,180.00 667.00,180.00 667.00,180.00
             667.00,180.00 637.42,220.00 637.42,220.00
             630.68,228.66 630.80,232.98 620.00,233.00
             620.00,233.00 542.00,233.00 542.00,233.00 Z
           M 265.06,211.02
           C 268.15,209.97 270.98,209.45 273.85,211.60
             278.33,214.94 277.93,222.78 272.89,225.54
             264.05,230.39 255.81,218.24 265.06,211.02 Z
           M 452.06,211.02
           C 455.15,209.97 457.98,209.45 460.85,211.60
             465.35,214.95 464.89,223.03 459.89,225.68
             451.50,230.15 442.58,218.42 452.06,211.02 Z
           M 268.27,215.82
           C 264.66,218.54 267.81,220.86 269.74,220.26
             271.55,219.70 272.98,216.24 268.27,215.82 Z
           M 456.00,215.91
           C 451.72,218.46 454.79,220.89 456.74,220.26
             458.41,219.71 459.84,216.84 456.00,215.91 Z
           M 308.00,219.46
           C 317.72,218.12 327.55,220.15 334.70,227.30
             348.82,241.42 344.89,266.68 327.00,275.62
             321.68,278.29 317.74,278.07 312.00,278.00
             289.55,277.73 277.05,253.23 287.41,234.00
             291.83,225.80 299.18,221.43 308.00,219.46 Z
           M 434.00,231.82
           C 440.87,231.64 454.83,237.30 455.84,245.00
             456.96,253.53 450.92,270.91 442.99,274.98
             440.33,276.34 435.07,276.03 432.00,276.00
             418.51,275.84 403.05,270.58 391.00,264.74
             387.29,262.95 377.73,259.48 380.23,254.08
             382.01,250.24 389.05,246.85 393.00,245.84
             393.00,245.84 416.00,239.58 416.00,239.58
             416.00,239.58 434.00,231.82 434.00,231.82 Z
           M 87.00,238.00
           C 87.00,238.00 179.00,238.00 179.00,238.00
             188.36,238.02 187.29,238.42 195.67,251.00
             195.67,251.00 222.00,292.00 222.00,292.00
             222.00,292.00 135.00,292.00 135.00,292.00
             124.59,291.98 124.20,288.29 117.88,280.00
             117.88,280.00 97.37,253.00 97.37,253.00
             93.74,248.16 89.39,243.60 87.00,238.00 Z
           M 504.00,292.00
           C 505.38,286.35 509.14,281.79 512.33,277.00
             512.33,277.00 529.34,251.00 529.34,251.00
             537.25,238.89 536.57,238.02 546.00,238.00
             546.00,238.00 638.00,238.00 638.00,238.00
             635.75,243.26 631.80,247.46 628.37,252.00
             628.37,252.00 607.87,279.00 607.87,279.00
             601.51,287.48 600.83,291.98 590.00,292.00
             590.00,292.00 504.00,292.00 504.00,292.00 Z
           M 346.00,311.00
           C 346.22,300.97 349.94,287.32 355.60,279.00
             357.39,276.37 361.48,271.19 365.00,271.30
             368.60,271.41 372.37,277.19 374.07,280.00
             379.69,289.22 382.90,300.21 383.00,311.00
             378.51,308.79 376.66,307.50 373.04,303.97
             370.80,301.78 368.39,298.29 364.96,298.29
             358.94,298.29 355.44,307.30 346.00,311.00 Z
           M 198.00,296.00
           C 198.00,296.00 218.00,296.00 218.00,296.00
             227.41,296.06 227.72,299.57 232.67,307.00
             232.67,307.00 251.00,336.00 251.00,336.00
             251.00,336.00 230.00,336.00 230.00,336.00
             227.23,335.98 224.66,336.17 222.32,334.40
             220.18,332.78 215.74,325.61 214.00,323.00
             209.39,316.09 199.85,303.57 198.00,296.00 Z
           M 475.00,336.00
           C 476.56,329.62 482.29,322.57 486.00,317.00
             486.00,317.00 497.76,299.15 497.76,299.15
             500.44,296.11 502.18,296.07 506.00,296.00
             506.00,296.00 528.00,296.00 528.00,296.00
             524.56,303.71 514.77,317.34 509.67,325.00
             505.55,331.17 504.87,334.85 497.00,335.00
             488.74,335.15 483.38,334.50 475.00,336.00 Z
           M 432.00,339.00
           C 432.00,339.00 493.00,339.00 493.00,339.00
             493.00,339.00 505.00,337.99 505.00,337.99
             505.00,337.99 513.00,337.99 513.00,337.99
             521.96,336.90 520.69,329.90 525.22,327.09
             528.96,324.93 536.81,326.45 541.00,327.09
             541.00,327.09 541.00,369.00 541.00,369.00
             541.00,369.00 538.00,398.00 538.00,398.00
             538.00,398.00 538.00,413.00 538.00,413.00
             537.98,424.46 535.01,436.19 531.33,447.00
             529.77,451.58 527.11,457.11 521.04,455.17
             517.39,454.00 516.15,450.50 516.08,447.00
             516.08,447.00 519.92,423.00 519.92,423.00
             520.44,419.83 521.09,417.22 520.47,414.00
             517.32,397.67 502.15,394.02 488.00,394.00
             488.00,394.00 249.00,394.00 249.00,394.00
             249.00,394.00 236.00,393.00 236.00,393.00
             236.00,393.00 152.00,393.00 152.00,393.00
             146.35,392.97 126.84,391.72 122.00,390.23
             107.89,385.88 95.36,373.03 89.00,360.00
             89.00,360.00 116.00,353.92 116.00,353.92
             116.00,353.92 138.00,344.23 138.00,344.23
             147.12,340.82 158.27,339.02 168.00,339.00
             168.00,339.00 298.00,339.00 298.00,339.00
             298.00,352.92 296.87,353.24 306.00,357.00
             306.00,357.00 306.00,342.00 306.00,342.00
             306.00,342.00 311.00,342.00 311.00,342.00
             311.00,342.00 311.00,359.00 311.00,359.00
             311.00,359.00 324.00,362.00 324.00,362.00
             324.00,362.00 324.00,346.00 324.00,346.00
             324.00,346.00 328.00,346.00 328.00,346.00
             328.00,346.00 328.00,363.00 328.00,363.00
             328.00,363.00 342.00,364.00 342.00,364.00
             342.00,364.00 342.00,347.00 342.00,347.00
             342.00,347.00 346.00,347.00 346.00,347.00
             346.00,347.00 346.00,365.00 346.00,365.00
             346.00,365.00 364.00,366.00 364.00,366.00
             364.00,366.00 364.00,350.00 364.00,350.00
             364.00,350.00 369.00,350.00 369.00,350.00
             369.00,350.00 369.00,365.00 369.00,365.00
             369.00,365.00 384.00,365.00 384.00,365.00
             384.00,365.00 384.00,347.00 384.00,347.00
             384.00,347.00 389.00,347.00 389.00,347.00
             389.00,347.00 389.00,364.00 389.00,364.00
             389.00,364.00 405.00,362.00 405.00,362.00
             405.00,362.00 405.00,345.00 405.00,345.00
             405.00,345.00 410.00,345.00 410.00,345.00
             410.00,345.00 410.00,360.00 410.00,360.00
             410.00,360.00 421.00,358.00 421.00,358.00
             421.00,358.00 421.00,343.00 421.00,343.00
             421.00,343.00 426.00,343.00 426.00,343.00
             426.00,343.00 426.00,356.00 426.00,356.00
             435.98,352.37 432.74,348.18 432.00,339.00 Z
           M 654.00,341.47
           C 659.01,340.77 673.84,339.70 677.30,343.43
             680.17,346.52 680.94,351.97 681.00,356.00
             681.08,362.36 681.60,376.50 679.96,382.00
             678.71,386.17 676.66,390.61 672.00,391.67
             667.85,392.61 654.32,388.00 650.00,386.29
             647.53,385.31 645.40,384.31 644.02,381.89
             642.09,378.53 641.99,369.04 642.00,365.00
             642.02,354.30 641.71,344.51 654.00,341.47 Z
           M 548.11,344.74
           C 557.97,342.28 560.95,346.90 561.00,356.00
             561.00,356.00 561.00,374.00 561.00,374.00
             560.98,378.21 561.22,382.34 556.89,384.57
             552.69,386.74 546.48,385.69 544.60,380.95
             543.95,379.31 544.01,376.77 544.00,375.00
             543.97,370.47 543.48,351.03 544.74,348.11
             545.67,345.93 546.32,345.88 548.11,344.74 Z
           M 568.05,344.74
           C 578.71,342.14 580.95,347.69 581.00,357.00
             581.00,357.00 581.00,374.00 581.00,374.00
             580.94,378.63 580.89,382.83 575.95,384.85
             571.70,386.59 565.82,385.42 563.89,380.89
             563.03,378.89 563.03,376.16 563.00,374.00
             562.94,368.85 562.27,351.84 564.31,348.11
             565.49,345.96 566.14,345.88 568.05,344.74 Z
           M 588.04,344.74
           C 591.73,343.84 596.66,343.43 598.98,347.23
             600.11,349.08 599.99,351.89 600.00,354.00
             600.00,354.00 600.00,375.00 600.00,375.00
             599.98,379.15 600.36,382.94 595.89,384.85
             591.69,386.64 585.63,385.49 583.74,380.94
             582.93,379.01 583.01,376.09 583.00,374.00
             582.98,369.55 582.51,352.07 583.74,349.04
             584.79,346.45 585.81,346.04 588.04,344.74 Z
           M 608.04,344.57
           C 617.40,342.94 619.95,346.19 620.00,355.00
             620.00,355.00 620.00,374.00 620.00,374.00
             619.98,378.71 620.15,383.00 614.96,384.97
             611.18,386.40 606.17,385.60 604.02,381.87
             603.01,380.11 603.04,377.96 603.00,376.00
             603.00,376.00 603.00,358.00 603.00,358.00
             603.00,355.44 602.77,350.34 603.74,348.13
             604.78,345.75 605.89,345.51 608.04,344.57 Z
           M 627.06,344.74
           C 636.95,342.32 639.95,346.82 640.00,356.00
             640.00,356.00 640.00,374.00 640.00,374.00
             639.95,378.02 639.93,382.43 635.87,384.57
             632.20,386.50 625.65,385.95 623.74,381.78
             622.79,379.72 623.07,375.45 622.87,373.00
             621.79,362.06 622.18,365.36 622.87,355.00
             623.08,352.61 622.75,349.30 624.02,347.23
             625.04,345.57 625.61,345.62 627.06,344.74 Z
           M 51.00,364.00
           C 51.00,364.00 86.00,360.00 86.00,360.00
             89.00,365.59 92.93,371.27 97.17,376.00
             105.63,385.43 117.26,393.05 130.00,394.94
             130.00,394.94 139.00,394.94 139.00,394.94
             139.00,394.94 178.00,396.00 178.00,396.00
             178.00,396.00 217.00,396.00 217.00,396.00
             217.00,396.00 234.00,397.00 234.00,397.00
             234.00,397.00 482.00,397.00 482.00,397.00
             479.50,401.89 476.53,403.16 473.31,409.00
             470.79,413.57 468.82,421.54 464.89,424.26
             460.70,427.16 442.74,425.25 438.00,423.44
             434.03,421.92 432.35,420.15 429.66,417.00
             428.26,415.36 426.32,412.37 423.91,412.34
             419.90,412.28 414.98,420.46 411.00,421.83
             405.31,423.80 401.03,413.20 396.00,413.20
             391.79,413.20 388.78,420.68 383.99,421.26
             378.73,421.90 374.85,414.13 371.00,413.62
             366.86,413.08 363.61,420.33 358.00,421.53
             351.49,422.92 348.79,414.69 344.00,413.49
             339.11,412.26 335.94,420.47 330.00,420.63
             324.48,420.78 321.28,413.28 317.09,413.34
             314.12,413.38 312.49,417.44 307.00,420.64
             300.85,424.22 293.96,424.99 287.00,425.00
             287.00,425.00 225.00,425.00 225.00,425.00
             225.00,425.00 209.00,426.00 209.00,426.00
             209.00,426.00 194.00,425.00 194.00,425.00
             167.67,424.96 139.12,424.07 114.00,415.67
             94.48,409.14 77.42,397.57 64.00,382.00
             59.58,376.87 53.44,370.24 51.00,364.00 Z
           M 363.00,504.00
           C 363.00,504.00 379.00,479.00 379.00,479.00
             379.00,479.00 406.67,437.00 406.67,437.00
             406.67,437.00 420.53,416.42 420.53,416.42
             420.53,416.42 425.00,414.00 425.00,414.00
             429.70,420.95 432.52,424.87 441.00,427.00
             438.68,434.30 424.68,453.25 419.69,461.00
             419.69,461.00 380.31,521.00 380.31,521.00
             380.31,521.00 364.00,546.00 364.00,546.00
             364.00,546.00 361.00,546.00 361.00,546.00
             361.00,546.00 348.05,526.00 348.05,526.00
             348.05,526.00 305.33,461.00 305.33,461.00
             305.33,461.00 284.00,428.00 284.00,428.00
             295.33,428.00 298.46,427.19 309.00,423.00
             309.00,423.00 341.66,472.00 341.66,472.00
             341.66,472.00 363.00,504.00 363.00,504.00 Z
           M 316.00,415.00
           C 322.53,417.42 324.88,423.81 330.00,423.46
             334.86,423.13 338.40,415.59 343.00,416.03
             346.84,416.39 350.50,422.83 355.00,424.21
             360.41,425.87 366.76,418.03 371.00,415.00
             374.51,418.50 380.41,426.06 386.00,423.16
             389.29,421.45 392.69,416.20 396.00,416.20
             399.55,416.20 402.72,422.09 410.00,426.00
             407.85,432.77 396.52,448.22 392.00,455.00
             392.00,455.00 373.00,484.00 373.00,484.00
             369.70,488.95 366.32,494.99 362.00,499.00
             362.00,499.00 323.00,440.00 323.00,440.00
             323.00,440.00 312.28,422.00 312.28,422.00
             312.28,422.00 316.00,415.00 316.00,415.00 Z" />
</svg>
