<?xml version="1.0" encoding="UTF-8" standalone="no"?>
<!DOCTYPE svg PUBLIC "-//W3C//DTD SVG 20010904//EN"
              "http://www.w3.org/TR/2001/REC-SVG-20010904/DTD/svg10.dtd">

<svg xmlns="http://www.w3.org/2000/svg"
     width="0.23in" height="0.273333in"
     viewBox="0 0 69 82">
  <path id="Selection"
        fill="none" stroke="black" stroke-width="1"
        d="M 0.00,0.00
           C 0.00,0.00 23.00,11.25 23.00,11.25
             23.00,11.25 34.00,15.73 34.00,15.73
             34.00,15.73 45.00,11.25 45.00,11.25
             45.00,11.25 68.00,0.00 68.00,0.00
             68.00,0.00 50.42,44.00 50.42,44.00
             50.42,44.00 34.00,82.00 34.00,82.00
             34.00,82.00 15.99,40.00 15.99,40.00
             15.99,40.00 0.00,0.00 0.00,0.00 Z
           M 61.00,8.00
           C 61.00,8.00 51.00,12.52 51.00,12.52
             51.00,12.52 35.02,21.39 35.02,21.39
             35.02,21.39 34.00,27.00 34.00,27.00
             34.00,27.00 34.00,56.00 34.00,56.00
             34.00,56.00 35.00,71.00 35.00,71.00
             35.00,71.00 51.42,32.00 51.42,32.00
             51.42,32.00 61.00,8.00 61.00,8.00 Z" />
</svg>
