<?xml version="1.0" encoding="UTF-8" standalone="no"?>
<!-- Created with Inkscape (http://www.inkscape.org/) -->

<svg
   version="1.1"
   id="svg1099"
   width="110"
   height="45"
   viewBox="0 0 110 45"
   sodipodi:docname="ranks.svg"
   inkscape:version="1.1 (c68e22c387, 2021-05-23)"
   xmlns:inkscape="http://www.inkscape.org/namespaces/inkscape"
   xmlns:sodipodi="http://sodipodi.sourceforge.net/DTD/sodipodi-0.dtd"
   xmlns="http://www.w3.org/2000/svg"
   xmlns:svg="http://www.w3.org/2000/svg">
  <defs
     id="defs1103" />
  <sodipodi:namedview
     id="namedview1101"
     pagecolor="#ffffff"
     bordercolor="#666666"
     borderopacity="1.0"
     inkscape:pageshadow="2"
     inkscape:pageopacity="0.0"
     inkscape:pagecheckerboard="0"
     showgrid="false"
     fit-margin-top="0"
     fit-margin-left="0"
     fit-margin-right="0"
     fit-margin-bottom="0"
     inkscape:zoom="1.117284"
     inkscape:cx="274.77348"
     inkscape:cy="191.0884"
     inkscape:window-width="1920"
     inkscape:window-height="1017"
     inkscape:window-x="1912"
     inkscape:window-y="-8"
     inkscape:window-maximized="1"
     inkscape:current-layer="layer5" />
  <g
     inkscape:groupmode="layer"
     id="layer5"
     inkscape:label="Image 1"
     style="display:inline" />
  <g
     inkscape:groupmode="layer"
     inkscape:label="Image"
     id="g1105">
    <rect
       style="fill:#ffffff;fill-opacity:1;stroke:none;stroke-width:2.66224;stroke-miterlimit:4;stroke-dasharray:none;stroke-opacity:1"
       id="rect3714"
       width="60"
       height="45"
       x="24.5"
       y="0"
       inkscape:export-filename="C:\Data\projects\M15-Magic-Pack-main\data\kt2-common.mse-include\revered.png"
       inkscape:export-xdpi="96"
       inkscape:export-ydpi="96" />
    <rect
       style="display:inline;fill:#000000;fill-opacity:1;stroke:none;stroke-width:1.00564;stroke-miterlimit:4;stroke-dasharray:none;stroke-opacity:1"
       id="rect4948"
       width="51"
       height="8"
       x="29"
       y="20"
       ry="0.13925238" />
    <rect
       style="display:inline;fill:#000000;fill-opacity:1;stroke:none;stroke-width:1.00564;stroke-miterlimit:4;stroke-dasharray:none;stroke-opacity:1"
       id="rect4948-2"
       width="51"
       height="8"
       x="29"
       y="29"
       ry="0.13925238" />
    <rect
       style="display:inline;fill:#000000;fill-opacity:1;stroke:none;stroke-width:1.09077;stroke-miterlimit:4;stroke-dasharray:none;stroke-opacity:1"
       id="rect4948-2-1"
       width="60"
       height="8"
       x="24.5"
       y="11"
       ry="0.13925238" />
    <path
       style="fill:#000000;fill-opacity:1;stroke:#ffffff;stroke-width:1;stroke-linecap:butt;stroke-linejoin:miter;stroke-miterlimit:4;stroke-dasharray:none;stroke-opacity:1"
       d="M 32,6 H 77 L 54.5,44 Z"
       id="path1220"
       sodipodi:nodetypes="cccc" />
    <path
       style="fill:#ffffff;fill-opacity:1;stroke:none;stroke-width:1;stroke-linecap:butt;stroke-linejoin:miter;stroke-miterlimit:4;stroke-dasharray:none;stroke-opacity:1"
       d="m 65,43 h 45 L 87.5,5 Z"
       id="path1220-6"
       sodipodi:nodetypes="cccc" />
    <path
       style="fill:#ffffff;fill-opacity:1;stroke:none;stroke-width:1;stroke-linecap:butt;stroke-linejoin:miter;stroke-miterlimit:4;stroke-dasharray:none;stroke-opacity:1"
       d="M 0,43 H 45 L 22.5,5 Z"
       id="path1220-6-2"
       sodipodi:nodetypes="cccc" />
    <path
       style="fill:#000000;fill-opacity:1;stroke:#ffffff;stroke-width:1;stroke-linecap:butt;stroke-linejoin:miter;stroke-miterlimit:4;stroke-dasharray:none;stroke-opacity:1"
       d="M 37,3 H 72 L 54.5,33 Z"
       id="path1218"
       sodipodi:nodetypes="cccc" />
    <path
       style="display:inline;fill:#000000;fill-opacity:1;stroke:none;stroke-width:1px;stroke-linecap:butt;stroke-linejoin:miter;stroke-opacity:1"
       d="M 46.39061,8.25587 62.52905,8.09765 63.79481,25.66008 54.61805,38.00124 45.59951,24.39432 Z"
       id="path6728" />
    <path
       style="fill:#ffffff;fill-opacity:1;stroke:none;stroke-opacity:1"
       d="m 55.31977,30.12593 c -0.28211,-0.0929 -0.29948,-0.12528 -0.32697,-0.60933 -0.014,-0.24663 -0.0445,-0.45493 -0.0715,-0.48768 -0.035,-0.0424 -0.10798,-0.0533 -0.28508,-0.0419 -0.3528,0.0225 -0.36139,0.0365 -0.36139,0.57735 0,0.57582 0.0303,0.55274 -0.73078,0.55603 -0.47841,0.001 -0.59756,-0.01 -0.83811,-0.0863 -0.36987,-0.11713 -0.39301,-0.16513 -0.29907,-0.62057 0.10948,-0.53114 0.114,-0.60516 0.04,-0.66703 -0.0972,-0.0813 -0.59811,-0.0607 -0.6625,0.0272 -0.0317,0.0435 -0.0484,0.21703 -0.0485,0.51362 -3.3e-4,0.24631 -0.0158,0.4719 -0.0342,0.50126 -0.0613,0.0974 -1.32768,-0.35134 -1.46637,-0.5197 -0.0336,-0.0408 -0.0528,-0.3371 -0.0658,-1.01619 l -0.0186,-0.95861 0.1336,-0.15501 c 0.21607,-0.25065 0.37488,-0.52893 0.3747,-0.6566 -2.7e-4,-0.19237 -0.29693,-0.57506 -0.50483,-0.65123 -0.0344,-0.0125 -0.2162,0.0308 -0.40385,0.0966 -0.50261,0.176 -0.83276,0.17085 -1.21399,-0.0188 -0.3453,-0.17194 -0.70897,-0.49629 -0.85084,-0.75892 -0.0981,-0.18174 -0.10548,-0.22519 -0.0965,-0.57611 l 0.01,-0.37955 -0.44817,-0.92996 c -0.24649,-0.51147 -0.45925,-1.00281 -0.47282,-1.09188 -0.0524,-0.34422 0.14515,-0.823 0.66643,-1.61506 0.30261,-0.45981 0.31108,-0.51286 0.22052,-1.38096 -0.0765,-0.73274 -0.12767,-0.96648 -0.34834,-1.58865 -0.24042,-0.67775 -0.53664,-1.66308 -0.61739,-2.05363 -0.0536,-0.25954 -0.0685,-0.52239 -0.0694,-1.23995 -10e-4,-0.97014 0.0321,-1.26773 0.22514,-2.00294 0.21357,-0.81322 0.8995,-1.87038 1.9112,-2.94558 0.4745,-0.50425 0.76716,-0.75266 1.30078,-1.10412 1.26747,-0.83475 2.46337,-1.21309 3.98227,-1.25986 1.11855,-0.0344 2.14719,0.11262 3.26786,0.46723 1.57726,0.4991 2.65289,1.07617 3.46885,1.861 1.38755,1.33461 2.01785,2.93308 2.0188,5.11992 5e-4,1.16108 -0.11776,1.68589 -0.6232,2.76549 -0.16714,0.35704 -0.33242,0.75271 -0.36726,0.87923 -0.0985,0.35768 -0.12015,1.48807 -0.0373,1.93494 0.0851,0.45788 0.14279,0.58096 0.56263,1.19994 0.34804,0.51311 0.35329,0.52422 0.32938,0.69978 -0.0311,0.22922 -0.35536,0.8632 -0.59161,1.157 -0.10096,0.12547 -0.23536,0.29719 -0.29882,0.38159 l -0.11538,0.15345 -0.0192,0.66835 -0.0193,0.66833 -0.30768,0.38204 c -0.16925,0.21014 -0.36992,0.44822 -0.44598,0.52906 l -0.13828,0.14702 H 59.9372 59.24147 l -0.18523,-0.11563 c -0.10196,-0.0636 -0.24083,-0.12666 -0.30873,-0.14015 -0.10434,-0.0208 -0.1423,-0.006 -0.24539,0.0982 -0.11776,0.11864 -0.12127,0.13183 -0.10359,0.38233 0.0125,0.17517 0.065,0.37649 0.16157,0.61978 0.24052,0.60557 0.43833,1.52139 0.45593,2.11079 0.008,0.26455 -4.5e-4,0.30248 -0.0874,0.39743 -0.13275,0.1449 -0.33824,0.27142 -0.62361,0.38401 -0.31259,0.12328 -0.68397,0.22845 -0.71091,0.20131 -0.0113,-0.0113 -0.035,-0.22497 -0.0519,-0.47395 -0.04,-0.58745 -0.0377,-0.585 -0.50111,-0.53141 -0.21955,0.0253 -0.36438,0.0608 -0.38536,0.094 -0.0186,0.0294 -0.0339,0.20386 -0.0342,0.38769 -8.1e-4,0.54036 -0.01,0.55862 -0.28383,0.65472 -0.30225,0.1056 -0.79238,0.13468 -1.01797,0.0603 z m -1.50003,-4.57872 c 0.065,-0.0339 0.22806,-0.1646 0.3625,-0.2906 0.32238,-0.30214 0.44937,-0.29695 0.55408,0.0226 0.0726,0.22206 0.25034,0.26778 0.58879,0.1516 0.33149,-0.11375 0.45703,-0.39714 0.32092,-0.72431 -0.0687,-0.16482 -0.71929,-1.02036 -1.01373,-1.33278 -0.13487,-0.14312 -0.2888,-0.12052 -0.40726,0.0598 -0.13235,0.20149 -0.56185,1.06864 -0.75583,1.52604 -0.13041,0.30753 -0.15047,0.38733 -0.11851,0.47183 0.0638,0.16902 0.26938,0.21968 0.4691,0.11563 z m 6.0473,-2.11459 0.47375,-0.35492 0.0246,-0.43349 c 0.0136,-0.23843 0.0519,-0.58 0.0854,-0.75909 0.11964,-0.6406 0.11801,-0.70145 -0.0234,-0.86371 -0.16382,-0.18796 -0.74067,-0.47023 -1.08042,-0.52863 -0.31185,-0.0537 -0.45567,-0.0196 -0.69594,0.1653 -0.30159,0.23192 -0.90816,0.4532 -1.79216,0.65381 l -0.39679,0.0902 -0.43674,0.35832 c -0.2402,0.19707 -0.44818,0.39468 -0.46219,0.43911 -0.0153,0.0489 -3.5e-4,0.11939 0.0377,0.178 0.0743,0.114 0.77042,0.58513 1.14901,0.7775 0.732,0.37194 1.65025,0.61596 2.36305,0.62797 l 0.28033,0.005 z m -8.66248,0.16606 c 0.42152,-0.11099 0.82178,-0.28752 1.27902,-0.56417 0.70826,-0.42854 1.02196,-0.72755 1.02196,-0.97413 0,-0.035 -0.1224,-0.19067 -0.27205,-0.34616 l -0.27207,-0.28264 -0.48756,-0.015 c -0.4421,-0.0137 -0.52703,-0.0287 -0.91065,-0.16109 -0.51913,-0.17916 -1.12326,-0.47418 -1.39811,-0.68279 -0.30064,-0.22814 -0.45555,-0.22008 -0.92012,0.0479 -0.19458,0.11224 -0.38672,0.23246 -0.42699,0.26719 -0.18373,0.15847 -0.33033,0.84475 -0.27379,1.28164 0.0591,0.45619 0.19823,0.73105 0.56839,1.12251 0.21221,0.22439 0.35142,0.29547 0.74194,0.37874 0.26523,0.0566 1.01339,0.0167 1.35003,-0.072 z"
       id="path5471" />
  </g>
</svg>
